<?xml version="1.0" encoding="utf-8"?>
<!-- Generator: Adobe Illustrator 23.0.3, SVG Export Plug-In . SVG Version: 6.00 Build 0)  -->
<svg version="1.1" id="Layer_1" xmlns="http://www.w3.org/2000/svg" xmlns:xlink="http://www.w3.org/1999/xlink" x="0px" y="0px"
	 viewBox="0 0 24 24" style="enable-background:new 0 0 24 24;" xml:space="preserve">
<style type="text/css">
	.st0{fill:#C4C4C4;}
	.st1{fill:#A0A0A0;}
	.st2{opacity:0.5;fill:#FF00FF;}
	.st3{fill:#707070;}
	.st4{fill:none;}
	.st5{fill:#6B6B6B;}
	.st6{fill:#666666;}
	.st7{fill:#FFFFFF;}
	.st8{fill:#8E8D8D;}
	.st9{fill:url(#SVGID_1_);}
	.st10{fill:#009EFF;}
	.st11{fill:#979797;}
	.st12{fill:url(#SVGID_2_);}
</style>
<path class="st3" d="M12,2C9,2,6.3,3.4,4.5,5.5L2,3v6h6L5.9,6.9C7.3,5.1,9.5,4,12,4c4.4,0,8,3.6,8,8s-3.6,8-8,8s-8-3.6-8-8H2
	c0,5.5,4.5,10,10,10s10-4.5,10-10S17.5,2,12,2z M11,6v6.4l3.3,3.3l1.4-1.4L13,11.6V6H11z"/>
</svg>
