<?xml version="1.0" encoding="utf-8"?>
<!-- Generator: Adobe Illustrator 23.0.3, SVG Export Plug-In . SVG Version: 6.00 Build 0)  -->
<svg version="1.1" id="Layer_1" xmlns="http://www.w3.org/2000/svg" xmlns:xlink="http://www.w3.org/1999/xlink" x="0px" y="0px"
	 viewBox="0 -6 24 30" style="enable-background:new 0 -6 24 30;" xml:space="preserve">
<style type="text/css">
	.st0{fill:#C4C4C4;}
	.st1{fill:#A0A0A0;}
	.st2{opacity:0.5;fill:#FF00FF;}
	.st3{fill:#707070;}
	.st4{fill:none;}
	.st5{fill:#6B6B6B;}
	.st6{fill:#666666;}
	.st7{fill:#FFFFFF;}
	.st8{fill:#8E8D8D;}
	.st9{fill:url(#SVGID_1_);}
	.st10{fill:#009EFF;}
	.st11{fill:#979797;}
	.st12{fill:url(#SVGID_2_);}
</style>
<g>
	<rect x="5.8" y="5.8" class="st4" width="8.9" height="3.6"/>
	<path class="st3" d="M12,18.2c-1.5,0-2.7-1.2-2.7-2.7s1.2-2.7,2.7-2.7c0.7,0,1.4,0.3,1.9,0.8c1.1-1,2.5-1.7,4.1-1.7
		c0.7,0,1.4,0.1,2,0.3V7.6L16.4,4H4v16h8.4C12.2,19.4,12,18.8,12,18.2C12,18.2,12,18.2,12,18.2z M5.8,5.8h8.9v3.6H5.8V5.8z"/>
	<path class="st3" d="M20,13.4c-0.6-0.3-1.3-0.4-2-0.4c-1.4,0-2.7,0.6-3.6,1.5C13.6,15.4,13,16.6,13,18c0,0,0,0,0,0
		c0,0.7,0.2,1.4,0.4,2c0.8,1.8,2.5,3,4.6,3c2.8,0,5-2.2,5-5C23,15.9,21.8,14.2,20,13.4z M20,20L20,20L20,20l-0.4,0.4L19.3,20
		l-1.8-1.8V15h1v2.8l1.5,1.5l0.4,0.4L20,20z"/>
	<polygon points="20,20 20,20 20,20 	"/>
</g>
</svg>
