<svg version="1.1" xmlns="http://www.w3.org/2000/svg" width="24" height="24" viewBox="0 0 24 24">
<path d="M6.2,4C4.4,4,3,5.4,3,7.1c0,1.1,0.6,2,1.4,2.6l0,0l4,2.3l-4,2.3l0,0C3.6,14.9,3,15.8,3,16.9
	C3,18.6,4.4,20,6.1,20s3.1-1.4,3.1-3.1c0-1.1-0.6-2-1.4-2.6L21,6.7h-3.4L10.1,11L7.9,9.7c0.8-0.6,1.4-1.5,1.4-2.6
	C9.3,5.4,7.9,4,6.2,4L6.2,4z M6.2,5.8c0.8,0,1.3,0.6,1.3,1.3S6.9,8.4,6.2,8.4c-0.2,0-0.5-0.1-0.7-0.2L5.4,8.2C5,8,4.8,7.6,4.8,7.1
	C4.8,6.4,5.4,5.8,6.2,5.8z M13.6,13l-1.7,1l5.8,3.3H21L13.6,13L13.6,13z M6.2,15.6c0.8,0,1.3,0.6,1.3,1.3s-0.6,1.3-1.3,1.3
	s-1.3-0.6-1.3-1.3S5.4,15.6,6.2,15.6z"/>
</svg>
